<mxfile host="app.diagrams.net" agent="Mozilla/5.0 (Windows NT 10.0; Win64; x64) AppleWebKit/537.36 (KHTML, like Gecko) Chrome/134.0.0.0 Safari/537.36" version="26.1.0">
  <diagram name="Página-1" id="Zq3iInPOU0byKlPvF7dI">
    <mxGraphModel dx="1305" dy="1801" grid="1" gridSize="10" guides="1" tooltips="1" connect="1" arrows="1" fold="1" page="1" pageScale="1" pageWidth="827" pageHeight="1169" math="0" shadow="0">
      <root>
        <mxCell id="0" />
        <mxCell id="1" parent="0" />
        <mxCell id="UjDgEG0FhpkOe6v6X8NV-1" value="Libro" style="rounded=0;whiteSpace=wrap;html=1;labelBackgroundColor=none;fillColor=#B2C9AB;strokeColor=#788AA3;fontColor=#46495D;" vertex="1" parent="1">
          <mxGeometry x="260" y="320" width="120" height="60" as="geometry" />
        </mxCell>
        <mxCell id="UjDgEG0FhpkOe6v6X8NV-2" value="Título del libro" style="ellipse;whiteSpace=wrap;html=1;labelBackgroundColor=none;fillColor=#B2C9AB;strokeColor=#788AA3;fontColor=#46495D;" vertex="1" parent="1">
          <mxGeometry x="140" y="100" width="120" height="80" as="geometry" />
        </mxCell>
        <mxCell id="UjDgEG0FhpkOe6v6X8NV-3" value="Nombre autor" style="ellipse;whiteSpace=wrap;html=1;labelBackgroundColor=none;fillColor=#B2C9AB;strokeColor=#788AA3;fontColor=#46495D;" vertex="1" parent="1">
          <mxGeometry x="40" y="180" width="120" height="80" as="geometry" />
        </mxCell>
        <mxCell id="UjDgEG0FhpkOe6v6X8NV-4" value="Número identificación" style="ellipse;whiteSpace=wrap;html=1;labelBackgroundColor=none;fillColor=#B2C9AB;strokeColor=#788AA3;fontColor=#46495D;" vertex="1" parent="1">
          <mxGeometry x="10" y="280" width="120" height="80" as="geometry" />
        </mxCell>
        <mxCell id="UjDgEG0FhpkOe6v6X8NV-5" value="Año publicación" style="ellipse;whiteSpace=wrap;html=1;labelBackgroundColor=none;fillColor=#B2C9AB;strokeColor=#788AA3;fontColor=#46495D;" vertex="1" parent="1">
          <mxGeometry x="10" y="370" width="120" height="80" as="geometry" />
        </mxCell>
        <mxCell id="UjDgEG0FhpkOe6v6X8NV-6" value="Editorial" style="ellipse;whiteSpace=wrap;html=1;labelBackgroundColor=none;fillColor=#B2C9AB;strokeColor=#788AA3;fontColor=#46495D;" vertex="1" parent="1">
          <mxGeometry x="50" y="470" width="120" height="80" as="geometry" />
        </mxCell>
        <mxCell id="UjDgEG0FhpkOe6v6X8NV-7" value="Estado" style="ellipse;whiteSpace=wrap;html=1;labelBackgroundColor=none;fillColor=#B2C9AB;strokeColor=#788AA3;fontColor=#46495D;" vertex="1" parent="1">
          <mxGeometry x="160" y="550" width="120" height="80" as="geometry" />
        </mxCell>
        <mxCell id="UjDgEG0FhpkOe6v6X8NV-9" value="Usuario" style="rounded=0;whiteSpace=wrap;html=1;labelBackgroundColor=none;fillColor=#B2C9AB;strokeColor=#788AA3;fontColor=#46495D;" vertex="1" parent="1">
          <mxGeometry x="680" y="310" width="120" height="60" as="geometry" />
        </mxCell>
        <mxCell id="UjDgEG0FhpkOe6v6X8NV-10" value="Nombre" style="ellipse;whiteSpace=wrap;html=1;labelBackgroundColor=none;fillColor=#B2C9AB;strokeColor=#788AA3;fontColor=#46495D;" vertex="1" parent="1">
          <mxGeometry x="720" y="110" width="120" height="80" as="geometry" />
        </mxCell>
        <mxCell id="UjDgEG0FhpkOe6v6X8NV-11" value="Apellido" style="ellipse;whiteSpace=wrap;html=1;labelBackgroundColor=none;fillColor=#B2C9AB;strokeColor=#788AA3;fontColor=#46495D;" vertex="1" parent="1">
          <mxGeometry x="870" y="80" width="120" height="80" as="geometry" />
        </mxCell>
        <mxCell id="UjDgEG0FhpkOe6v6X8NV-12" value="Dirección" style="ellipse;whiteSpace=wrap;html=1;labelBackgroundColor=none;fillColor=#B2C9AB;strokeColor=#788AA3;fontColor=#46495D;" vertex="1" parent="1">
          <mxGeometry x="980" y="180" width="120" height="80" as="geometry" />
        </mxCell>
        <mxCell id="UjDgEG0FhpkOe6v6X8NV-13" value="Teléfono" style="ellipse;whiteSpace=wrap;html=1;labelBackgroundColor=none;fillColor=#B2C9AB;strokeColor=#788AA3;fontColor=#46495D;" vertex="1" parent="1">
          <mxGeometry x="1000" y="300" width="120" height="80" as="geometry" />
        </mxCell>
        <mxCell id="UjDgEG0FhpkOe6v6X8NV-14" value="Libros registrados" style="ellipse;whiteSpace=wrap;html=1;labelBackgroundColor=none;fillColor=#B2C9AB;strokeColor=#788AA3;fontColor=#46495D;" vertex="1" parent="1">
          <mxGeometry x="897" y="390" width="120" height="80" as="geometry" />
        </mxCell>
        <mxCell id="UjDgEG0FhpkOe6v6X8NV-15" value="Prestamo" style="rounded=0;whiteSpace=wrap;html=1;labelBackgroundColor=none;fillColor=#B2C9AB;strokeColor=#788AA3;fontColor=#46495D;" vertex="1" parent="1">
          <mxGeometry x="450" y="560" width="120" height="60" as="geometry" />
        </mxCell>
        <mxCell id="UjDgEG0FhpkOe6v6X8NV-17" value="Fecha de prestamo" style="ellipse;whiteSpace=wrap;html=1;labelBackgroundColor=none;fillColor=#B2C9AB;strokeColor=#788AA3;fontColor=#46495D;" vertex="1" parent="1">
          <mxGeometry x="330" y="650" width="120" height="80" as="geometry" />
        </mxCell>
        <mxCell id="UjDgEG0FhpkOe6v6X8NV-18" value="Fecha devolución" style="ellipse;whiteSpace=wrap;html=1;labelBackgroundColor=none;fillColor=#B2C9AB;strokeColor=#788AA3;fontColor=#46495D;" vertex="1" parent="1">
          <mxGeometry x="450" y="720" width="120" height="80" as="geometry" />
        </mxCell>
        <mxCell id="UjDgEG0FhpkOe6v6X8NV-19" value="Estado" style="ellipse;whiteSpace=wrap;html=1;labelBackgroundColor=none;fillColor=#B2C9AB;strokeColor=#788AA3;fontColor=#46495D;" vertex="1" parent="1">
          <mxGeometry x="590" y="650" width="120" height="80" as="geometry" />
        </mxCell>
        <mxCell id="UjDgEG0FhpkOe6v6X8NV-20" value="Nombre" style="ellipse;whiteSpace=wrap;html=1;labelBackgroundColor=none;fillColor=#B2C9AB;strokeColor=#788AA3;fontColor=#46495D;" vertex="1" parent="1">
          <mxGeometry x="240" y="-80" width="120" height="80" as="geometry" />
        </mxCell>
        <mxCell id="UjDgEG0FhpkOe6v6X8NV-21" value="Autor" style="rounded=0;whiteSpace=wrap;html=1;labelBackgroundColor=none;fillColor=#B2C9AB;strokeColor=#788AA3;fontColor=#46495D;" vertex="1" parent="1">
          <mxGeometry x="380" y="60" width="120" height="60" as="geometry" />
        </mxCell>
        <mxCell id="UjDgEG0FhpkOe6v6X8NV-22" value="Apellido" style="ellipse;whiteSpace=wrap;html=1;labelBackgroundColor=none;fillColor=#B2C9AB;strokeColor=#788AA3;fontColor=#46495D;" vertex="1" parent="1">
          <mxGeometry x="390" y="-140" width="120" height="80" as="geometry" />
        </mxCell>
        <mxCell id="UjDgEG0FhpkOe6v6X8NV-23" value="Fecha de nacimiento" style="ellipse;whiteSpace=wrap;html=1;labelBackgroundColor=none;fillColor=#B2C9AB;strokeColor=#788AA3;fontColor=#46495D;" vertex="1" parent="1">
          <mxGeometry x="560" y="-130" width="120" height="80" as="geometry" />
        </mxCell>
        <mxCell id="UjDgEG0FhpkOe6v6X8NV-28" value="" style="endArrow=none;html=1;rounded=0;entryX=1;entryY=1;entryDx=0;entryDy=0;exitX=0.25;exitY=0;exitDx=0;exitDy=0;labelBackgroundColor=none;strokeColor=#788AA3;fontColor=default;" edge="1" parent="1" source="UjDgEG0FhpkOe6v6X8NV-21" target="UjDgEG0FhpkOe6v6X8NV-20">
          <mxGeometry width="50" height="50" relative="1" as="geometry">
            <mxPoint x="410" y="70" as="sourcePoint" />
            <mxPoint x="630" y="250" as="targetPoint" />
          </mxGeometry>
        </mxCell>
        <mxCell id="UjDgEG0FhpkOe6v6X8NV-29" value="" style="endArrow=none;html=1;rounded=0;entryX=0.5;entryY=1;entryDx=0;entryDy=0;exitX=0.5;exitY=0;exitDx=0;exitDy=0;labelBackgroundColor=none;strokeColor=#788AA3;fontColor=default;" edge="1" parent="1" source="UjDgEG0FhpkOe6v6X8NV-21" target="UjDgEG0FhpkOe6v6X8NV-22">
          <mxGeometry width="50" height="50" relative="1" as="geometry">
            <mxPoint x="480" y="170" as="sourcePoint" />
            <mxPoint x="530" y="120" as="targetPoint" />
          </mxGeometry>
        </mxCell>
        <mxCell id="UjDgEG0FhpkOe6v6X8NV-30" value="" style="endArrow=none;html=1;rounded=0;entryX=0;entryY=1;entryDx=0;entryDy=0;exitX=0.75;exitY=0;exitDx=0;exitDy=0;labelBackgroundColor=none;strokeColor=#788AA3;fontColor=default;" edge="1" parent="1" source="UjDgEG0FhpkOe6v6X8NV-21" target="UjDgEG0FhpkOe6v6X8NV-23">
          <mxGeometry width="50" height="50" relative="1" as="geometry">
            <mxPoint x="480" y="170" as="sourcePoint" />
            <mxPoint x="530" y="120" as="targetPoint" />
          </mxGeometry>
        </mxCell>
        <mxCell id="UjDgEG0FhpkOe6v6X8NV-34" value="" style="endArrow=none;html=1;rounded=0;exitX=1;exitY=1;exitDx=0;exitDy=0;entryX=0.5;entryY=0;entryDx=0;entryDy=0;labelBackgroundColor=none;strokeColor=#788AA3;fontColor=default;" edge="1" parent="1" source="UjDgEG0FhpkOe6v6X8NV-2" target="UjDgEG0FhpkOe6v6X8NV-1">
          <mxGeometry width="50" height="50" relative="1" as="geometry">
            <mxPoint x="340" y="400" as="sourcePoint" />
            <mxPoint x="390" y="350" as="targetPoint" />
          </mxGeometry>
        </mxCell>
        <mxCell id="UjDgEG0FhpkOe6v6X8NV-35" value="" style="endArrow=none;html=1;rounded=0;entryX=1;entryY=0.5;entryDx=0;entryDy=0;exitX=0.25;exitY=0;exitDx=0;exitDy=0;labelBackgroundColor=none;strokeColor=#788AA3;fontColor=default;" edge="1" parent="1" source="UjDgEG0FhpkOe6v6X8NV-1" target="UjDgEG0FhpkOe6v6X8NV-3">
          <mxGeometry width="50" height="50" relative="1" as="geometry">
            <mxPoint x="340" y="400" as="sourcePoint" />
            <mxPoint x="390" y="350" as="targetPoint" />
          </mxGeometry>
        </mxCell>
        <mxCell id="UjDgEG0FhpkOe6v6X8NV-36" value="" style="endArrow=none;html=1;rounded=0;entryX=1;entryY=0.5;entryDx=0;entryDy=0;exitX=0;exitY=0.75;exitDx=0;exitDy=0;labelBackgroundColor=none;strokeColor=#788AA3;fontColor=default;" edge="1" parent="1" source="UjDgEG0FhpkOe6v6X8NV-1" target="UjDgEG0FhpkOe6v6X8NV-4">
          <mxGeometry width="50" height="50" relative="1" as="geometry">
            <mxPoint x="340" y="400" as="sourcePoint" />
            <mxPoint x="390" y="350" as="targetPoint" />
          </mxGeometry>
        </mxCell>
        <mxCell id="UjDgEG0FhpkOe6v6X8NV-37" value="" style="endArrow=none;html=1;rounded=0;exitX=1;exitY=0.5;exitDx=0;exitDy=0;entryX=0;entryY=1;entryDx=0;entryDy=0;labelBackgroundColor=none;strokeColor=#788AA3;fontColor=default;" edge="1" parent="1" source="UjDgEG0FhpkOe6v6X8NV-5" target="UjDgEG0FhpkOe6v6X8NV-1">
          <mxGeometry width="50" height="50" relative="1" as="geometry">
            <mxPoint x="340" y="400" as="sourcePoint" />
            <mxPoint x="390" y="350" as="targetPoint" />
          </mxGeometry>
        </mxCell>
        <mxCell id="UjDgEG0FhpkOe6v6X8NV-38" value="" style="endArrow=none;html=1;rounded=0;exitX=1;exitY=0;exitDx=0;exitDy=0;entryX=0.25;entryY=1;entryDx=0;entryDy=0;labelBackgroundColor=none;strokeColor=#788AA3;fontColor=default;" edge="1" parent="1" source="UjDgEG0FhpkOe6v6X8NV-6" target="UjDgEG0FhpkOe6v6X8NV-1">
          <mxGeometry width="50" height="50" relative="1" as="geometry">
            <mxPoint x="340" y="400" as="sourcePoint" />
            <mxPoint x="390" y="350" as="targetPoint" />
          </mxGeometry>
        </mxCell>
        <mxCell id="UjDgEG0FhpkOe6v6X8NV-39" value="" style="endArrow=none;html=1;rounded=0;exitX=0.5;exitY=0;exitDx=0;exitDy=0;entryX=0.5;entryY=1;entryDx=0;entryDy=0;labelBackgroundColor=none;strokeColor=#788AA3;fontColor=default;" edge="1" parent="1" source="UjDgEG0FhpkOe6v6X8NV-7" target="UjDgEG0FhpkOe6v6X8NV-1">
          <mxGeometry width="50" height="50" relative="1" as="geometry">
            <mxPoint x="340" y="400" as="sourcePoint" />
            <mxPoint x="390" y="350" as="targetPoint" />
          </mxGeometry>
        </mxCell>
        <mxCell id="UjDgEG0FhpkOe6v6X8NV-40" value="" style="endArrow=none;html=1;rounded=0;entryX=0.5;entryY=1;entryDx=0;entryDy=0;exitX=0.5;exitY=0;exitDx=0;exitDy=0;labelBackgroundColor=none;strokeColor=#788AA3;fontColor=default;" edge="1" parent="1" source="UjDgEG0FhpkOe6v6X8NV-9" target="UjDgEG0FhpkOe6v6X8NV-10">
          <mxGeometry width="50" height="50" relative="1" as="geometry">
            <mxPoint x="790" y="260" as="sourcePoint" />
            <mxPoint x="840" y="210" as="targetPoint" />
          </mxGeometry>
        </mxCell>
        <mxCell id="UjDgEG0FhpkOe6v6X8NV-41" value="" style="endArrow=none;html=1;rounded=0;entryX=0;entryY=1;entryDx=0;entryDy=0;exitX=0.75;exitY=0;exitDx=0;exitDy=0;labelBackgroundColor=none;strokeColor=#788AA3;fontColor=default;" edge="1" parent="1" source="UjDgEG0FhpkOe6v6X8NV-9" target="UjDgEG0FhpkOe6v6X8NV-11">
          <mxGeometry width="50" height="50" relative="1" as="geometry">
            <mxPoint x="790" y="260" as="sourcePoint" />
            <mxPoint x="840" y="210" as="targetPoint" />
          </mxGeometry>
        </mxCell>
        <mxCell id="UjDgEG0FhpkOe6v6X8NV-42" value="" style="endArrow=none;html=1;rounded=0;entryX=0;entryY=0.5;entryDx=0;entryDy=0;exitX=1;exitY=0;exitDx=0;exitDy=0;labelBackgroundColor=none;strokeColor=#788AA3;fontColor=default;" edge="1" parent="1" source="UjDgEG0FhpkOe6v6X8NV-9" target="UjDgEG0FhpkOe6v6X8NV-12">
          <mxGeometry width="50" height="50" relative="1" as="geometry">
            <mxPoint x="790" y="260" as="sourcePoint" />
            <mxPoint x="840" y="210" as="targetPoint" />
          </mxGeometry>
        </mxCell>
        <mxCell id="UjDgEG0FhpkOe6v6X8NV-43" value="" style="endArrow=none;html=1;rounded=0;entryX=0;entryY=0.5;entryDx=0;entryDy=0;exitX=1;exitY=0.5;exitDx=0;exitDy=0;labelBackgroundColor=none;strokeColor=#788AA3;fontColor=default;" edge="1" parent="1" source="UjDgEG0FhpkOe6v6X8NV-9" target="UjDgEG0FhpkOe6v6X8NV-13">
          <mxGeometry width="50" height="50" relative="1" as="geometry">
            <mxPoint x="790" y="260" as="sourcePoint" />
            <mxPoint x="840" y="210" as="targetPoint" />
          </mxGeometry>
        </mxCell>
        <mxCell id="UjDgEG0FhpkOe6v6X8NV-44" value="" style="endArrow=none;html=1;rounded=0;entryX=0;entryY=0;entryDx=0;entryDy=0;exitX=1;exitY=1;exitDx=0;exitDy=0;labelBackgroundColor=none;strokeColor=#788AA3;fontColor=default;" edge="1" parent="1" source="UjDgEG0FhpkOe6v6X8NV-9" target="UjDgEG0FhpkOe6v6X8NV-14">
          <mxGeometry width="50" height="50" relative="1" as="geometry">
            <mxPoint x="790" y="260" as="sourcePoint" />
            <mxPoint x="840" y="210" as="targetPoint" />
          </mxGeometry>
        </mxCell>
        <mxCell id="UjDgEG0FhpkOe6v6X8NV-45" value="" style="endArrow=none;html=1;rounded=0;entryX=1;entryY=1;entryDx=0;entryDy=0;exitX=0;exitY=0;exitDx=0;exitDy=0;labelBackgroundColor=none;strokeColor=#788AA3;fontColor=default;" edge="1" parent="1" source="UjDgEG0FhpkOe6v6X8NV-19" target="UjDgEG0FhpkOe6v6X8NV-15">
          <mxGeometry width="50" height="50" relative="1" as="geometry">
            <mxPoint x="600" y="690" as="sourcePoint" />
            <mxPoint x="650" y="640" as="targetPoint" />
          </mxGeometry>
        </mxCell>
        <mxCell id="UjDgEG0FhpkOe6v6X8NV-46" value="" style="endArrow=none;html=1;rounded=0;entryX=0.5;entryY=1;entryDx=0;entryDy=0;exitX=0.5;exitY=0;exitDx=0;exitDy=0;labelBackgroundColor=none;strokeColor=#788AA3;fontColor=default;" edge="1" parent="1" source="UjDgEG0FhpkOe6v6X8NV-18" target="UjDgEG0FhpkOe6v6X8NV-15">
          <mxGeometry width="50" height="50" relative="1" as="geometry">
            <mxPoint x="600" y="690" as="sourcePoint" />
            <mxPoint x="650" y="640" as="targetPoint" />
          </mxGeometry>
        </mxCell>
        <mxCell id="UjDgEG0FhpkOe6v6X8NV-47" value="" style="endArrow=none;html=1;rounded=0;entryX=0;entryY=1;entryDx=0;entryDy=0;exitX=0.5;exitY=0;exitDx=0;exitDy=0;labelBackgroundColor=none;strokeColor=#788AA3;fontColor=default;" edge="1" parent="1" source="UjDgEG0FhpkOe6v6X8NV-17" target="UjDgEG0FhpkOe6v6X8NV-15">
          <mxGeometry width="50" height="50" relative="1" as="geometry">
            <mxPoint x="600" y="690" as="sourcePoint" />
            <mxPoint x="650" y="640" as="targetPoint" />
          </mxGeometry>
        </mxCell>
        <mxCell id="UjDgEG0FhpkOe6v6X8NV-48" value="Solicita" style="rhombus;whiteSpace=wrap;html=1;labelBackgroundColor=none;fillColor=#B2C9AB;strokeColor=#788AA3;fontColor=#46495D;" vertex="1" parent="1">
          <mxGeometry x="680" y="450" width="120" height="60" as="geometry" />
        </mxCell>
        <mxCell id="UjDgEG0FhpkOe6v6X8NV-49" value="Escrito" style="rhombus;whiteSpace=wrap;html=1;labelBackgroundColor=none;fillColor=#B2C9AB;strokeColor=#788AA3;fontColor=#46495D;" vertex="1" parent="1">
          <mxGeometry x="380" y="190" width="120" height="60" as="geometry" />
        </mxCell>
        <mxCell id="UjDgEG0FhpkOe6v6X8NV-50" value="Tiene" style="rhombus;whiteSpace=wrap;html=1;labelBackgroundColor=none;fillColor=#B2C9AB;strokeColor=#788AA3;fontColor=#46495D;" vertex="1" parent="1">
          <mxGeometry x="450" y="410" width="120" height="60" as="geometry" />
        </mxCell>
        <mxCell id="UjDgEG0FhpkOe6v6X8NV-51" value="" style="endArrow=none;html=1;rounded=0;entryX=1;entryY=0.5;entryDx=0;entryDy=0;exitX=0.5;exitY=0;exitDx=0;exitDy=0;edgeStyle=orthogonalEdgeStyle;labelBackgroundColor=none;strokeColor=#788AA3;fontColor=default;" edge="1" parent="1" source="UjDgEG0FhpkOe6v6X8NV-50" target="UjDgEG0FhpkOe6v6X8NV-1">
          <mxGeometry width="50" height="50" relative="1" as="geometry">
            <mxPoint x="660" y="470" as="sourcePoint" />
            <mxPoint x="710" y="420" as="targetPoint" />
          </mxGeometry>
        </mxCell>
        <mxCell id="UjDgEG0FhpkOe6v6X8NV-52" value="" style="endArrow=none;html=1;rounded=0;entryX=0.5;entryY=1;entryDx=0;entryDy=0;exitX=0.5;exitY=0;exitDx=0;exitDy=0;labelBackgroundColor=none;strokeColor=#788AA3;fontColor=default;" edge="1" parent="1" source="UjDgEG0FhpkOe6v6X8NV-15" target="UjDgEG0FhpkOe6v6X8NV-50">
          <mxGeometry width="50" height="50" relative="1" as="geometry">
            <mxPoint x="640" y="460" as="sourcePoint" />
            <mxPoint x="690" y="410" as="targetPoint" />
          </mxGeometry>
        </mxCell>
        <mxCell id="UjDgEG0FhpkOe6v6X8NV-53" value="" style="endArrow=none;html=1;rounded=0;entryX=1;entryY=0.5;entryDx=0;entryDy=0;exitX=0.5;exitY=1;exitDx=0;exitDy=0;edgeStyle=orthogonalEdgeStyle;labelBackgroundColor=none;strokeColor=#788AA3;fontColor=default;" edge="1" parent="1" source="UjDgEG0FhpkOe6v6X8NV-48" target="UjDgEG0FhpkOe6v6X8NV-15">
          <mxGeometry width="50" height="50" relative="1" as="geometry">
            <mxPoint x="520" y="420" as="sourcePoint" />
            <mxPoint x="390" y="360" as="targetPoint" />
          </mxGeometry>
        </mxCell>
        <mxCell id="UjDgEG0FhpkOe6v6X8NV-54" value="" style="endArrow=none;html=1;rounded=0;entryX=0.5;entryY=1;entryDx=0;entryDy=0;exitX=0.5;exitY=0;exitDx=0;exitDy=0;labelBackgroundColor=none;strokeColor=#788AA3;fontColor=default;" edge="1" parent="1" source="UjDgEG0FhpkOe6v6X8NV-48" target="UjDgEG0FhpkOe6v6X8NV-9">
          <mxGeometry width="50" height="50" relative="1" as="geometry">
            <mxPoint x="640" y="460" as="sourcePoint" />
            <mxPoint x="690" y="410" as="targetPoint" />
          </mxGeometry>
        </mxCell>
        <mxCell id="UjDgEG0FhpkOe6v6X8NV-55" value="" style="endArrow=none;html=1;rounded=0;entryX=0.5;entryY=1;entryDx=0;entryDy=0;exitX=0.75;exitY=0;exitDx=0;exitDy=0;edgeStyle=orthogonalEdgeStyle;labelBackgroundColor=none;strokeColor=#788AA3;fontColor=default;" edge="1" parent="1" source="UjDgEG0FhpkOe6v6X8NV-1" target="UjDgEG0FhpkOe6v6X8NV-49">
          <mxGeometry width="50" height="50" relative="1" as="geometry">
            <mxPoint x="520" y="420" as="sourcePoint" />
            <mxPoint x="390" y="360" as="targetPoint" />
          </mxGeometry>
        </mxCell>
        <mxCell id="UjDgEG0FhpkOe6v6X8NV-56" value="" style="endArrow=none;html=1;rounded=0;entryX=0.5;entryY=1;entryDx=0;entryDy=0;labelBackgroundColor=none;strokeColor=#788AA3;fontColor=default;" edge="1" parent="1" source="UjDgEG0FhpkOe6v6X8NV-49" target="UjDgEG0FhpkOe6v6X8NV-21">
          <mxGeometry width="50" height="50" relative="1" as="geometry">
            <mxPoint x="640" y="360" as="sourcePoint" />
            <mxPoint x="690" y="310" as="targetPoint" />
          </mxGeometry>
        </mxCell>
        <mxCell id="UjDgEG0FhpkOe6v6X8NV-57" value="1:M" style="text;html=1;align=center;verticalAlign=middle;resizable=0;points=[];autosize=1;strokeColor=none;fillColor=none;labelBackgroundColor=none;fontColor=#46495D;" vertex="1" parent="1">
          <mxGeometry x="430" y="120" width="40" height="30" as="geometry" />
        </mxCell>
        <mxCell id="UjDgEG0FhpkOe6v6X8NV-58" value="1:M" style="text;html=1;align=center;verticalAlign=middle;resizable=0;points=[];autosize=1;strokeColor=none;fillColor=none;labelBackgroundColor=none;fontColor=#46495D;" vertex="1" parent="1">
          <mxGeometry x="340" y="300" width="40" height="30" as="geometry" />
        </mxCell>
        <mxCell id="UjDgEG0FhpkOe6v6X8NV-59" value="M:M" style="text;html=1;align=center;verticalAlign=middle;resizable=0;points=[];autosize=1;strokeColor=none;fillColor=none;labelBackgroundColor=none;fontColor=#46495D;" vertex="1" parent="1">
          <mxGeometry x="485" y="205" width="50" height="30" as="geometry" />
        </mxCell>
        <mxCell id="UjDgEG0FhpkOe6v6X8NV-61" value="1:M" style="text;html=1;align=center;verticalAlign=middle;resizable=0;points=[];autosize=1;strokeColor=none;fillColor=none;labelBackgroundColor=none;fontColor=#46495D;" vertex="1" parent="1">
          <mxGeometry x="370" y="350" width="40" height="30" as="geometry" />
        </mxCell>
        <mxCell id="UjDgEG0FhpkOe6v6X8NV-62" value="1:M" style="text;html=1;align=center;verticalAlign=middle;resizable=0;points=[];autosize=1;strokeColor=none;fillColor=none;labelBackgroundColor=none;fontColor=#46495D;" vertex="1" parent="1">
          <mxGeometry x="500" y="540" width="40" height="30" as="geometry" />
        </mxCell>
        <mxCell id="UjDgEG0FhpkOe6v6X8NV-63" value="M:M" style="text;html=1;align=center;verticalAlign=middle;resizable=0;points=[];autosize=1;strokeColor=none;fillColor=none;labelBackgroundColor=none;fontColor=#46495D;" vertex="1" parent="1">
          <mxGeometry x="410" y="425" width="50" height="30" as="geometry" />
        </mxCell>
        <mxCell id="UjDgEG0FhpkOe6v6X8NV-64" value="1:M" style="text;html=1;align=center;verticalAlign=middle;resizable=0;points=[];autosize=1;strokeColor=none;fillColor=none;labelBackgroundColor=none;fontColor=#46495D;" vertex="1" parent="1">
          <mxGeometry x="700" y="370" width="40" height="30" as="geometry" />
        </mxCell>
        <mxCell id="UjDgEG0FhpkOe6v6X8NV-67" value="1:M" style="text;html=1;align=center;verticalAlign=middle;resizable=0;points=[];autosize=1;strokeColor=none;fillColor=none;labelBackgroundColor=none;fontColor=#46495D;" vertex="1" parent="1">
          <mxGeometry x="570" y="560" width="40" height="30" as="geometry" />
        </mxCell>
        <mxCell id="UjDgEG0FhpkOe6v6X8NV-68" value="M:M" style="text;html=1;align=center;verticalAlign=middle;resizable=0;points=[];autosize=1;strokeColor=none;fillColor=none;labelBackgroundColor=none;fontColor=#46495D;" vertex="1" parent="1">
          <mxGeometry x="640" y="465" width="50" height="30" as="geometry" />
        </mxCell>
      </root>
    </mxGraphModel>
  </diagram>
</mxfile>
